# xmcd
#
# Track frame offsets: 
#        150
#        16239
#        26043
#        38913
#        51621
#        66023
#        81400
#        99355
#        114963
#        128603
#        145440
#        155624
#        172164
#
# Disc length: 2554 seconds
#
# Revision: 6
# Processed by: cddbd v1.5.2PL0 Copyright (c) Steve Scherf et al.
# Submitted via: ExactAudioCopy v1.0b4
#
DISCID=b209f80d
DTITLE=John Lee Hooker - Bluesville (LP)
DYEAR=1977
DGENRE=Blues
TTITLE0=Black Snake
TTITLE1=How Long Blues
TTITLE2=Wobblin' Baby
TTITLE3=She's Long, She's Tall, She Weeps Like A Willow Tree
TTITLE4=Pea Vine Special
TTITLE5=Tupelo Blues
TTITLE6=I'm Prison Bound
TTITLE7=I Rowed A Little Boat
TTITLE8=Water Boy
TTITLE9=Church Bell Tone
TTITLE10=Bundle Up And Go
TTITLE11=Good Mornin', Lil' School Girl
TTITLE12=Behind The Plow
EXTD=
EXTT0=
EXTT1=
EXTT2=
EXTT3=
EXTT4=
EXTT5=
EXTT6=
EXTT7=
EXTT8=
EXTT9=
EXTT10=
EXTT11=
EXTT12=
PLAYORDER=
